<svg width="35" height="35" viewBox="0 0 35 35" fill="none" xmlns="http://www.w3.org/2000/svg">
<path fill-rule="evenodd" clip-rule="evenodd" d="M17.5 0.364594C12.9964 0.364594 9.32207 3.91493 9.12309 8.36943C9.08591 8.3856 9.04887 8.40214 9.01197 8.41905C7.5457 9.09122 6.30442 10.172 5.43693 11.5319C5.21045 11.8869 5.02286 12.2613 4.86283 12.665C4.31837 14.0387 4.06666 15.8518 3.7004 18.4901L3.66941 18.7132C3.35747 20.9591 3.11361 22.7149 3.03954 24.1291C2.96434 25.565 3.05531 26.7616 3.48727 27.8602C4.19328 29.6557 5.49687 31.1529 7.1782 32.0992C8.20689 32.6781 9.37959 32.9329 10.8122 33.0559C12.2232 33.1771 13.9958 33.1771 16.2633 33.1771H18.7368C21.0043 33.1771 22.7769 33.1771 24.1879 33.0559C25.6205 32.9329 26.7932 32.6781 27.8219 32.0992C29.5032 31.1529 30.8068 29.6557 31.5128 27.8602C31.9447 26.7616 32.0357 25.565 31.9605 24.1291C31.8864 22.7148 31.6426 20.959 31.3306 18.713L31.2951 18.4572C30.9072 15.6629 30.6475 13.7912 30.0152 12.375C29.8832 12.0794 29.7341 11.7998 29.5631 11.5319C28.6956 10.172 27.4544 9.09122 25.9881 8.41905C25.9512 8.40214 25.9141 8.3856 25.877 8.36943C25.678 3.91493 22.0036 0.364594 17.5 0.364594ZM16.1091 7.65625C14.1356 7.65607 12.6178 7.65594 11.3739 7.80368C11.8295 4.82984 14.3988 2.55209 17.5 2.55209C20.6013 2.55209 23.1705 4.82984 23.6262 7.80368C22.3822 7.65594 20.8645 7.65607 18.891 7.65625H16.1091ZM10.5136 10.1897C11.6664 9.85467 13.2253 9.84376 16.3157 9.84376H18.6843C21.7747 9.84376 23.3337 9.85467 24.4865 10.1897C24.6985 10.2513 24.8927 10.3233 25.0765 10.4076C26.1297 10.8904 27.0258 11.6584 27.664 12.6238L26.8617 13.4261C24.4092 15.8785 22.6461 17.6384 21.1253 18.7987C19.6298 19.9398 18.4979 20.3974 17.3231 20.3974C16.1482 20.3974 15.0164 19.9398 13.5208 18.7987C12.0001 17.6384 10.2369 15.8785 7.7845 13.4261L7.19984 12.8414C7.22629 12.7962 7.25337 12.7519 7.28113 12.7083C7.92232 11.7032 8.83979 10.9044 9.92355 10.4076C10.1074 10.3233 10.3016 10.2513 10.5136 10.1897ZM28.5093 14.872C28.7199 15.8456 28.9026 17.1327 29.1567 18.9622C29.4774 21.2712 29.7074 22.9341 29.776 24.2435C29.844 25.5422 29.7444 26.3798 29.477 27.0597C28.9552 28.3868 27.9917 29.4934 26.7489 30.1929C26.1122 30.5512 25.2963 30.7652 24.0007 30.8764C22.6943 30.9886 21.0155 30.9896 18.6843 30.9896H16.3157C13.9846 30.9896 12.3058 30.9886 10.9994 30.8764C9.70376 30.7652 8.88782 30.5512 8.25113 30.1929C7.0084 29.4934 6.04488 28.3868 5.52305 27.0597C5.25569 26.3798 5.15603 25.5422 5.22405 24.2435C5.29262 22.9341 5.52264 21.2712 5.84333 18.9622C6.07233 17.3133 6.24292 16.104 6.4299 15.1651C8.74697 17.4821 10.5736 19.3015 12.1939 20.5378C13.884 21.8273 15.4776 22.5849 17.3231 22.5849C19.1685 22.5849 20.7621 21.8273 22.4522 20.5378C24.1034 19.278 25.9689 17.4125 28.3493 15.0321L28.5093 14.872Z" fill="#2D264B"/>
</svg>
