<svg width="35" height="35" viewBox="0 0 35 35" fill="none" xmlns="http://www.w3.org/2000/svg">
<path fill-rule="evenodd" clip-rule="evenodd" d="M11.8787 4.76988C11.4345 4.73957 10.8934 4.73958 10.2452 4.73959H10.1716C9.52339 4.73958 8.98227 4.73957 8.53805 4.76988C8.07561 4.80144 7.63881 4.86946 7.21532 5.04487C6.23266 5.4519 5.45193 6.23263 5.0449 7.21529C4.86949 7.63878 4.80147 8.07558 4.76991 8.53802C4.73961 8.98224 4.73961 9.52334 4.73962 10.1715V10.2452C4.73961 10.8933 4.73961 11.4344 4.76991 11.8787C4.80147 12.3411 4.86949 12.7779 5.0449 13.2014C5.45193 14.1841 6.23266 14.9648 7.21532 15.3718C7.63881 15.5472 8.07561 15.6153 8.53805 15.6468C8.98228 15.6771 9.52337 15.6771 10.1715 15.6771H10.2452C10.8934 15.6771 11.4345 15.6771 11.8787 15.6468C12.3411 15.6153 12.7779 15.5472 13.2014 15.3718C14.1841 14.9648 14.9648 14.1841 15.3719 13.2014C15.5473 12.7779 15.6153 12.3411 15.6468 11.8787C15.6771 11.4344 15.6771 10.8933 15.6771 10.2452V10.1715C15.6771 9.52334 15.6771 8.98225 15.6468 8.53802C15.6153 8.07558 15.5473 7.63878 15.3719 7.21529C14.9648 6.23263 14.1841 5.4519 13.2014 5.04487C12.7779 4.86946 12.3411 4.80144 11.8787 4.76988ZM8.05244 7.06586C8.16496 7.01925 8.3359 6.97626 8.68696 6.95231C9.04784 6.92769 9.51391 6.92709 10.2084 6.92709C10.9028 6.92709 11.3689 6.92769 11.7298 6.95231C12.0809 6.97626 12.2518 7.01925 12.3643 7.06586C12.811 7.25087 13.1658 7.60575 13.3509 8.05241C13.3975 8.16493 13.4405 8.33587 13.4644 8.68693C13.489 9.04781 13.4896 9.51388 13.4896 10.2083C13.4896 10.9028 13.489 11.3689 13.4644 11.7298C13.4405 12.0808 13.3975 12.2518 13.3509 12.3643C13.1658 12.8109 12.811 13.1658 12.3643 13.3508C12.2518 13.3974 12.0809 13.4404 11.7298 13.4644C11.3689 13.489 10.9028 13.4896 10.2084 13.4896C9.51391 13.4896 9.04784 13.489 8.68696 13.4644C8.3359 13.4404 8.16496 13.3974 8.05244 13.3508C7.60578 13.1658 7.2509 12.8109 7.06589 12.3643C7.01928 12.2518 6.97629 12.0808 6.95234 11.7298C6.92772 11.3689 6.92712 10.9028 6.92712 10.2083C6.92712 9.51388 6.92772 9.04781 6.95234 8.68693C6.97629 8.33587 7.01928 8.16493 7.06589 8.05241C7.2509 7.60575 7.60578 7.25087 8.05244 7.06586Z" fill="black"/>
<path fill-rule="evenodd" clip-rule="evenodd" d="M26.462 4.76988C26.0178 4.73957 25.4767 4.73958 24.8286 4.73959H24.7549C24.1067 4.73958 23.5656 4.73957 23.1214 4.76988C22.6589 4.80144 22.2221 4.86946 21.7987 5.04487C20.816 5.4519 20.0353 6.23263 19.6282 7.21529C19.4528 7.63878 19.3848 8.07558 19.3532 8.53802C19.3229 8.98225 19.3229 9.52334 19.323 10.1715V10.2452C19.3229 10.8933 19.3229 11.4344 19.3532 11.8787C19.3848 12.3411 19.4528 12.7779 19.6282 13.2014C20.0353 14.1841 20.816 14.9648 21.7987 15.3718C22.2221 15.5472 22.6589 15.6153 23.1214 15.6468C23.5656 15.6771 24.1067 15.6771 24.7549 15.6771H24.8285C25.4767 15.6771 26.0178 15.6771 26.462 15.6468C26.9245 15.6153 27.3613 15.5472 27.7848 15.3718C28.7674 14.9648 29.5481 14.1841 29.9552 13.2014C30.1306 12.7779 30.1986 12.3411 30.2302 11.8787C30.2605 11.4344 30.2605 10.8933 30.2605 10.2452V10.1715C30.2605 9.52334 30.2605 8.98225 30.2302 8.53802C30.1986 8.07558 30.1306 7.63878 29.9552 7.21529C29.5481 6.23263 28.7674 5.4519 27.7848 5.04487C27.3613 4.86946 26.9245 4.80144 26.462 4.76988ZM22.6358 7.06586C22.7483 7.01925 22.9192 6.97626 23.2703 6.95231C23.6312 6.92769 24.0972 6.92709 24.7917 6.92709C25.4862 6.92709 25.9522 6.92769 26.3131 6.95231C26.6642 6.97626 26.8351 7.01925 26.9476 7.06586C27.3943 7.25087 27.7492 7.60575 27.9342 8.05241C27.9808 8.16493 28.0238 8.33587 28.0477 8.68693C28.0724 9.04781 28.073 9.51388 28.073 10.2083C28.073 10.9028 28.0724 11.3689 28.0477 11.7298C28.0238 12.0808 27.9808 12.2518 27.9342 12.3643C27.7492 12.8109 27.3943 13.1658 26.9476 13.3508C26.8351 13.3974 26.6642 13.4404 26.3131 13.4644C25.9522 13.489 25.4862 13.4896 24.7917 13.4896C24.0972 13.4896 23.6312 13.489 23.2703 13.4644C22.9192 13.4404 22.7483 13.3974 22.6358 13.3508C22.1891 13.1658 21.8342 12.8109 21.6492 12.3643C21.6026 12.2518 21.5596 12.0808 21.5357 11.7298C21.5111 11.3689 21.5105 10.9028 21.5105 10.2083C21.5105 9.51388 21.5111 9.04781 21.5357 8.68693C21.5596 8.33587 21.6026 8.16493 21.6492 8.05241C21.8342 7.60575 22.1891 7.25087 22.6358 7.06586Z" fill="black"/>
<path fill-rule="evenodd" clip-rule="evenodd" d="M11.8787 19.3532C11.4345 19.3229 10.8934 19.3229 10.2452 19.3229H10.1715C9.52337 19.3229 8.98228 19.3229 8.53805 19.3532C8.07561 19.3848 7.63881 19.4528 7.21532 19.6282C6.23266 20.0352 5.45193 20.816 5.0449 21.7986C4.86949 22.2221 4.80147 22.6589 4.76991 23.1214C4.73961 23.5656 4.73961 24.1067 4.73962 24.7548V24.8285C4.73961 25.4767 4.73961 26.0178 4.76991 26.462C4.80147 26.9244 4.86949 27.3612 5.0449 27.7847C5.45193 28.7674 6.23266 29.5481 7.21532 29.9552C7.63881 30.1306 8.07561 30.1986 8.53805 30.2301C8.98228 30.2604 9.52337 30.2604 10.1715 30.2604H10.2452C10.8934 30.2604 11.4345 30.2604 11.8787 30.2301C12.3411 30.1986 12.7779 30.1306 13.2014 29.9552C14.1841 29.5481 14.9648 28.7674 15.3719 27.7847C15.5473 27.3612 15.6153 26.9244 15.6468 26.462C15.6771 26.0178 15.6771 25.4767 15.6771 24.8285V24.7548C15.6771 24.1067 15.6771 23.5656 15.6468 23.1214C15.6153 22.6589 15.5473 22.2221 15.3719 21.7986C14.9648 20.816 14.1841 20.0352 13.2014 19.6282C12.7779 19.4528 12.3411 19.3848 11.8787 19.3532ZM8.05244 21.6492C8.16496 21.6026 8.3359 21.5596 8.68696 21.5356C9.04784 21.511 9.51391 21.5104 10.2084 21.5104C10.9028 21.5104 11.3689 21.511 11.7298 21.5356C12.0809 21.5596 12.2518 21.6026 12.3643 21.6492C12.811 21.8342 13.1658 22.1891 13.3509 22.6357C13.3975 22.7483 13.4405 22.9192 13.4644 23.2703C13.489 23.6311 13.4896 24.0972 13.4896 24.7917C13.4896 25.4861 13.489 25.9522 13.4644 26.3131C13.4405 26.6642 13.3975 26.8351 13.3509 26.9476C13.1658 27.3943 12.811 27.7492 12.3643 27.9342C12.2518 27.9808 12.0809 28.0238 11.7298 28.0477C11.3689 28.0723 10.9028 28.0729 10.2084 28.0729C9.51391 28.0729 9.04784 28.0723 8.68696 28.0477C8.3359 28.0238 8.16496 27.9808 8.05244 27.9342C7.60578 27.7492 7.2509 27.3943 7.06589 26.9476C7.01928 26.8351 6.97629 26.6642 6.95234 26.3131C6.92772 25.9522 6.92712 25.4861 6.92712 24.7917C6.92712 24.0972 6.92772 23.6311 6.95234 23.2703C6.97629 22.9192 7.01928 22.7483 7.06589 22.6357C7.2509 22.1891 7.60578 21.8342 8.05244 21.6492Z" fill="black"/>
<path fill-rule="evenodd" clip-rule="evenodd" d="M26.462 19.3532C26.0178 19.3229 25.4767 19.3229 24.8285 19.3229H24.7549C24.1067 19.3229 23.5656 19.3229 23.1214 19.3532C22.6589 19.3848 22.2221 19.4528 21.7987 19.6282C20.816 20.0352 20.0353 20.816 19.6282 21.7986C19.4528 22.2221 19.3848 22.6589 19.3532 23.1214C19.3229 23.5656 19.3229 24.1067 19.323 24.7548V24.8285C19.3229 25.4767 19.3229 26.0178 19.3532 26.462C19.3848 26.9244 19.4528 27.3612 19.6282 27.7847C20.0353 28.7674 20.816 29.5481 21.7987 29.9552C22.2221 30.1306 22.6589 30.1986 23.1214 30.2301C23.5656 30.2604 24.1067 30.2604 24.7549 30.2604H24.8285C25.4767 30.2604 26.0178 30.2604 26.462 30.2301C26.9245 30.1986 27.3613 30.1306 27.7848 29.9552C28.7674 29.5481 29.5481 28.7674 29.9552 27.7847C30.1306 27.3612 30.1986 26.9244 30.2302 26.462C30.2605 26.0178 30.2605 25.4767 30.2605 24.8285V24.7548C30.2605 24.1067 30.2605 23.5656 30.2302 23.1214C30.1986 22.6589 30.1306 22.2221 29.9552 21.7986C29.5481 20.816 28.7674 20.0352 27.7848 19.6282C27.3613 19.4528 26.9245 19.3848 26.462 19.3532ZM22.6358 21.6492C22.7483 21.6026 22.9192 21.5596 23.2703 21.5356C23.6312 21.511 24.0972 21.5104 24.7917 21.5104C25.4862 21.5104 25.9522 21.511 26.3131 21.5356C26.6642 21.5596 26.8351 21.6026 26.9476 21.6492C27.3943 21.8342 27.7492 22.1891 27.9342 22.6357C27.9808 22.7483 28.0238 22.9192 28.0477 23.2703C28.0724 23.6311 28.073 24.0972 28.073 24.7917C28.073 25.4861 28.0724 25.9522 28.0477 26.3131C28.0238 26.6642 27.9808 26.8351 27.9342 26.9476C27.7492 27.3943 27.3943 27.7492 26.9476 27.9342C26.8351 27.9808 26.6642 28.0238 26.3131 28.0477C25.9522 28.0723 25.4862 28.0729 24.7917 28.0729C24.0972 28.0729 23.6312 28.0723 23.2703 28.0477C22.9192 28.0238 22.7483 27.9808 22.6358 27.9342C22.1891 27.7492 21.8342 27.3943 21.6492 26.9476C21.6026 26.8351 21.5596 26.6642 21.5357 26.3131C21.5111 25.9522 21.5105 25.4861 21.5105 24.7917C21.5105 24.0972 21.5111 23.6311 21.5357 23.2703C21.5596 22.9192 21.6026 22.7483 21.6492 22.6357C21.8342 22.1891 22.1891 21.8342 22.6358 21.6492Z" fill="black"/>
</svg>
