<svg width="35" height="35" viewBox="0 0 35 35" fill="none" xmlns="http://www.w3.org/2000/svg">
<path d="M12.4366 10.9852C12.8657 10.5599 12.8688 9.86743 12.4435 9.43839C12.0183 9.00936 11.3258 9.00627 10.8968 9.43149L8.27945 12.0256C7.29366 13.0026 6.48796 13.8011 5.91658 14.5125C5.32241 15.2524 4.8923 16.0033 4.77741 16.9048C4.72703 17.3 4.72703 17.7 4.77741 18.0952C4.8923 18.9967 5.32241 19.7476 5.91658 20.4875C6.48797 21.1989 7.29366 21.9974 8.27946 22.9745L10.8968 25.5685C11.3258 25.9937 12.0183 25.9906 12.4435 25.5616C12.8688 25.1326 12.8657 24.4401 12.4366 24.0148L9.86565 21.4667C8.82222 20.4325 8.10647 19.7208 7.62216 19.1177C7.46476 18.9217 7.34196 18.7492 7.24661 18.5937H29.1667C29.7708 18.5937 30.2605 18.1041 30.2605 17.5C30.2605 16.8959 29.7708 16.4062 29.1667 16.4062H7.24661C7.34196 16.2508 7.46476 16.0783 7.62216 15.8823C8.10647 15.2792 8.82222 14.5675 9.86565 13.5333L12.4366 10.9852Z" fill="#2D264B"/>
</svg>
