<svg width="35" height="35" viewBox="0 0 35 35" fill="none" xmlns="http://www.w3.org/2000/svg">
<path d="M7.29163 7.65625C6.68756 7.65625 6.19788 8.14594 6.19788 8.75C6.19788 9.35406 6.68756 9.84375 7.29163 9.84375H27.7083C28.3124 9.84375 28.802 9.35406 28.802 8.75C28.802 8.14594 28.3124 7.65625 27.7083 7.65625H7.29163Z" fill="#2D264B"/>
<path d="M7.29163 16.4063C6.68756 16.4063 6.19788 16.8959 6.19788 17.5C6.19788 18.1041 6.68756 18.5938 7.29163 18.5938H27.7083C28.3124 18.5938 28.802 18.1041 28.802 17.5C28.802 16.8959 28.3124 16.4063 27.7083 16.4063H7.29163Z" fill="#2D264B"/>
<path d="M7.29163 25.1563C6.68756 25.1563 6.19788 25.6459 6.19788 26.25C6.19788 26.8541 6.68756 27.3438 7.29163 27.3438H27.7083C28.3124 27.3438 28.802 26.8541 28.802 26.25C28.802 25.6459 28.3124 25.1563 27.7083 25.1563H7.29163Z" fill="#2D264B"/>
</svg>
