<svg width="35" height="35" viewBox="0 0 35 35" fill="none" xmlns="http://www.w3.org/2000/svg">
<path d="M24.1033 9.43149C23.6743 9.00627 22.9818 9.00936 22.5565 9.43839C22.1313 9.86743 22.1344 10.5599 22.5634 10.9852L25.1344 13.5333C26.1779 14.5675 26.8936 15.2792 27.3779 15.8823C27.5353 16.0783 27.6581 16.2508 27.7535 16.4062L5.83337 16.4063C5.22931 16.4063 4.73962 16.8959 4.73962 17.5C4.73962 18.1041 5.22931 18.5938 5.83337 18.5938L27.7535 18.5937C27.6581 18.7492 27.5353 18.9217 27.3779 19.1177C26.8936 19.7208 26.1779 20.4325 25.1344 21.4667L22.5634 24.0148C22.1344 24.4401 22.1313 25.1326 22.5565 25.5616C22.9818 25.9906 23.6743 25.9937 24.1033 25.5685L26.7206 22.9744C27.7064 21.9974 28.5121 21.1989 29.0835 20.4875C29.6777 19.7476 30.1078 18.9967 30.2227 18.0952C30.2479 17.8976 30.2605 17.6988 30.2605 17.5C30.2605 17.3012 30.2479 17.1024 30.2227 16.9048C30.1078 16.0033 29.6777 15.2524 29.0835 14.5125C28.5121 13.8011 27.7064 13.0026 26.7206 12.0255L24.1033 9.43149Z" fill="#2D264B"/>
</svg>
