<svg width="35" height="35" viewBox="0 0 35 35" fill="none" xmlns="http://www.w3.org/2000/svg">
<path fill-rule="evenodd" clip-rule="evenodd" d="M16.5625 5C10.729 5 6 9.72899 6 15.5625C6 21.396 10.729 26.125 16.5625 26.125C22.396 26.125 27.125 21.396 27.125 15.5625C27.125 9.72899 22.396 5 16.5625 5ZM7.625 15.5625C7.625 10.6265 11.6265 6.625 16.5625 6.625C21.4985 6.625 25.5 10.6265 25.5 15.5625C25.5 20.4985 21.4985 24.5 16.5625 24.5C11.6265 24.5 7.625 20.4985 7.625 15.5625Z" fill="#2D264B"/>
<path d="M25.8038 23.6547C25.4865 23.3374 24.972 23.3374 24.6547 23.6547C24.3374 23.972 24.3374 24.4865 24.6547 24.8038L28.9879 29.1371C29.3052 29.4544 29.8197 29.4544 30.137 29.1371C30.4543 28.8198 30.4543 28.3053 30.137 27.988L25.8038 23.6547Z" fill="#2D264B"/>
</svg>
