<svg width="35" height="35" viewBox="0 0 35 35" fill="none" xmlns="http://www.w3.org/2000/svg">
<path fill-rule="evenodd" clip-rule="evenodd" d="M9.39811 4.73959C5.21442 4.73959 1.82288 8.13114 1.82288 12.3148C1.82288 13.5278 2.51847 14.6332 3.61197 15.1581L4.32271 15.4993C6.00129 16.305 6.00129 18.695 4.32271 19.5008L3.61197 19.8419C2.51847 20.3668 1.82288 21.4723 1.82288 22.6852C1.82288 26.8689 5.21442 30.2604 9.39811 30.2604H25.6018C29.7855 30.2604 33.177 26.8689 33.177 22.6852C33.177 21.4723 32.4814 20.3668 31.388 19.8419L30.6772 19.5008C28.9986 18.695 28.9986 16.305 30.6772 15.4993L31.388 15.1581C32.4814 14.6332 33.177 13.5278 33.177 12.3148C33.177 8.13114 29.7855 4.73959 25.6018 4.73959H9.39811ZM4.01038 12.3148C4.01038 9.33926 6.42255 6.92709 9.39811 6.92709H25.6018C28.5774 6.92709 30.9895 9.33926 30.9895 12.3148C30.9895 12.6865 30.7764 13.0252 30.4414 13.186L29.7306 13.5272C26.3975 15.1271 26.3975 19.8729 29.7306 21.4728L30.4414 21.814C30.7764 21.9748 30.9895 22.3135 30.9895 22.6852C30.9895 25.6608 28.5774 28.0729 25.6018 28.0729H9.39811C6.42255 28.0729 4.01038 25.6608 4.01038 22.6852C4.01038 22.3135 4.22351 21.9748 4.55857 21.814L5.26931 21.4728C8.60243 19.8729 8.60243 15.1271 5.26931 13.5272L4.55857 13.186C4.22351 13.0252 4.01038 12.6865 4.01038 12.3148Z" fill="#2D264B"/>
<path d="M21.5104 6.92709C21.5104 6.92709 21.0492 6.92709 20.4451 6.92709C19.841 6.92709 19.3229 6.92709 19.3229 6.92709V7.3889C19.3229 7.99296 19.8126 8.48265 20.4166 8.48265C21.0207 8.48265 21.5104 7.99296 21.5104 7.3889V6.92709Z" fill="#2D264B"/>
<path d="M21.5104 12.0556C21.5104 11.4515 21.0207 10.9618 20.4166 10.9618C19.8126 10.9618 19.3229 11.4515 19.3229 12.0556V15.1667C19.3229 15.7707 19.8126 16.2604 20.4166 16.2604C21.0207 16.2604 21.5104 15.7707 21.5104 15.1667V12.0556Z" fill="#2D264B"/>
<path d="M21.5104 19.8333C21.5104 19.2293 21.0207 18.7396 20.4166 18.7396C19.8126 18.7396 19.3229 19.2293 19.3229 19.8333V22.9445C19.3229 23.5485 19.8126 24.0382 20.4166 24.0382C21.0207 24.0382 21.5104 23.5485 21.5104 22.9445V19.8333Z" fill="#2D264B"/>
<path d="M21.5104 27.6111C21.5104 27.0071 21.0207 26.5174 20.4166 26.5174C19.8126 26.5174 19.3229 27.0071 19.3229 27.6111V28.0729H20.4166H21.5104V27.6111Z" fill="#2D264B"/>
</svg>
